<svg t="1597480553345" class="icon" viewBox="0 0 1024 1024" version="1.1" xmlns="http://www.w3.org/2000/svg" p-id="13090" width="200" height="200"><path d="M513.5 224c47.9 0 86.7-35.8 86.7-79.9 0-44.1-38.8-79.9-86.7-79.9-47.9 0-86.7 35.8-86.7 79.9 0 44.1 38.8 79.9 86.7 79.9z m0 194.2c-47.9 0-86.7 35.7-86.7 79.8 0 44.1 38.8 79.8 86.7 79.8 47.9 0 86.7-35.7 86.7-79.8 0-44.1-38.8-79.8-86.7-79.8z m0 353.9c-47.9 0-86.7 35.7-86.7 79.8 0 44.1 38.8 79.8 86.7 79.8 47.9 0 86.7-35.7 86.7-79.8 0-44.1-38.8-79.8-86.7-79.8z" p-id="13091"></path></svg>